<svg width="136" height="35" viewBox="0 0 136 35" fill="none" xmlns="http://www.w3.org/2000/svg">
<path d="M0 0H38V35H0V0Z" fill="#E0E0E0"/>
<path d="M11.138 15.0863V19.9137H5.89661V15.0863H11.138Z" fill="#005DF8"/>
<path d="M11.138 25.3448V30.1724H5.89661V25.3448H11.138Z" fill="#CE00A0"/>
<path d="M17.0344 6.03458H32.1034V8.44825H17.0344V6.03458Z" fill="#080808"/>
<path d="M17.0344 16.293H32.1034V18.707H17.0344V16.293Z" fill="#080808"/>
<path d="M17.0344 26.5517H32.1034V28.9654H17.0344V26.5517Z" fill="#080808"/>
<path d="M7.862 10.2587C7.69443 10.2587 7.52657 10.1994 7.399 10.0819L5.43336 8.27147C5.17708 8.03542 5.17708 7.6541 5.43336 7.41805C5.68878 7.18226 6.10423 7.18226 6.35965 7.41805L8.32529 9.22851C8.58157 9.46456 8.58157 9.84588 8.32529 10.0819C8.19743 10.1994 8.02986 10.2587 7.862 10.2587Z" fill="#4A1EC7"/>
<path d="M7.86137 10.2587C7.72975 10.2587 7.59667 10.2219 7.48071 10.1463C7.18644 9.95271 7.11831 9.57539 7.32879 9.30463L10.6046 5.0805C10.815 4.80893 11.2244 4.74725 11.5187 4.93977C11.8126 5.13364 11.8808 5.51068 11.6706 5.78172L8.39482 10.0058C8.26754 10.1706 8.06576 10.2587 7.86137 10.2587Z" fill="#4A1EC7"/>
<path d="M52.64 17.608C52.64 17.112 52.496 16.752 52.208 16.528C51.936 16.288 51.56 16.168 51.08 16.168C50.76 16.168 50.44 16.208 50.12 16.288C49.816 16.368 49.552 16.488 49.328 16.648V24.976C49.168 25.024 48.912 25.072 48.56 25.12C48.224 25.168 47.872 25.192 47.504 25.192C47.152 25.192 46.832 25.168 46.544 25.12C46.272 25.072 46.04 24.976 45.848 24.832C45.656 24.688 45.504 24.496 45.392 24.256C45.296 24 45.248 23.672 45.248 23.272V16.072C45.248 15.64 45.336 15.288 45.512 15.016C45.704 14.744 45.96 14.496 46.28 14.272C46.824 13.888 47.504 13.576 48.32 13.336C49.152 13.096 50.072 12.976 51.08 12.976C52.888 12.976 54.28 13.376 55.256 14.176C56.232 14.96 56.72 16.056 56.72 17.464V24.976C56.56 25.024 56.304 25.072 55.952 25.12C55.616 25.168 55.264 25.192 54.896 25.192C54.544 25.192 54.224 25.168 53.936 25.12C53.664 25.072 53.432 24.976 53.24 24.832C53.048 24.688 52.896 24.496 52.784 24.256C52.688 24 52.64 23.672 52.64 23.272V17.608ZM58.7362 19.168C58.7362 18.112 58.8962 17.2 59.2162 16.432C59.5362 15.648 59.9762 15 60.5362 14.488C61.1122 13.976 61.7762 13.6 62.5282 13.36C63.2962 13.104 64.1202 12.976 65.0002 12.976C65.3202 12.976 65.6322 13.008 65.9362 13.072C66.2402 13.12 66.4882 13.184 66.6802 13.264V9.376C66.8402 9.328 67.0962 9.28 67.4482 9.232C67.8002 9.168 68.1602 9.136 68.5282 9.136C68.8802 9.136 69.1922 9.16 69.4642 9.208C69.7522 9.256 69.9922 9.352 70.1842 9.496C70.3762 9.64 70.5202 9.84 70.6162 10.096C70.7122 10.336 70.7602 10.656 70.7602 11.056V22.432C70.7602 23.184 70.4082 23.784 69.7042 24.232C69.2402 24.536 68.6402 24.8 67.9042 25.024C67.1682 25.264 66.3202 25.384 65.3602 25.384C64.3202 25.384 63.3842 25.24 62.5522 24.952C61.7362 24.664 61.0402 24.248 60.4642 23.704C59.9042 23.16 59.4722 22.512 59.1682 21.76C58.8802 20.992 58.7362 20.128 58.7362 19.168ZM65.5522 16.168C64.6882 16.168 64.0242 16.416 63.5602 16.912C63.0962 17.408 62.8642 18.16 62.8642 19.168C62.8642 20.16 63.0802 20.912 63.5122 21.424C63.9442 21.92 64.5682 22.168 65.3842 22.168C65.6722 22.168 65.9282 22.128 66.1522 22.048C66.3922 21.952 66.5762 21.848 66.7042 21.736V16.456C66.3842 16.264 66.0002 16.168 65.5522 16.168ZM79.4707 25.384C78.5267 25.384 77.6467 25.256 76.8307 25C76.0307 24.728 75.3267 24.328 74.7187 23.8C74.1267 23.272 73.6547 22.608 73.3027 21.808C72.9667 21.008 72.7987 20.072 72.7987 19C72.7987 17.944 72.9667 17.04 73.3027 16.288C73.6547 15.52 74.1107 14.896 74.6707 14.416C75.2307 13.92 75.8707 13.56 76.5907 13.336C77.3107 13.096 78.0467 12.976 78.7987 12.976C79.6467 12.976 80.4147 13.104 81.1027 13.36C81.8067 13.616 82.4067 13.968 82.9027 14.416C83.4147 14.864 83.8067 15.4 84.0787 16.024C84.3667 16.648 84.5107 17.328 84.5107 18.064C84.5107 18.608 84.3587 19.024 84.0547 19.312C83.7507 19.6 83.3267 19.784 82.7827 19.864L76.8547 20.752C77.0307 21.28 77.3907 21.68 77.9347 21.952C78.4787 22.208 79.1027 22.336 79.8067 22.336C80.4627 22.336 81.0787 22.256 81.6547 22.096C82.2467 21.92 82.7267 21.72 83.0947 21.496C83.3507 21.656 83.5667 21.88 83.7427 22.168C83.9187 22.456 84.0067 22.76 84.0067 23.08C84.0067 23.8 83.6707 24.336 82.9987 24.688C82.4867 24.96 81.9107 25.144 81.2707 25.24C80.6307 25.336 80.0307 25.384 79.4707 25.384ZM78.7987 15.952C78.4147 15.952 78.0787 16.016 77.7907 16.144C77.5187 16.272 77.2947 16.44 77.1187 16.648C76.9427 16.84 76.8067 17.064 76.7107 17.32C76.6307 17.56 76.5827 17.808 76.5667 18.064L80.6707 17.392C80.6227 17.072 80.4467 16.752 80.1427 16.432C79.8387 16.112 79.3907 15.952 78.7987 15.952ZM91.8266 12.976C92.7866 12.976 93.6746 13.104 94.4906 13.36C95.3226 13.6 96.0346 13.976 96.6266 14.488C97.2186 15 97.6826 15.648 98.0186 16.432C98.3546 17.2 98.5226 18.12 98.5226 19.192C98.5226 20.216 98.3786 21.112 98.0906 21.88C97.8026 22.648 97.3946 23.296 96.8666 23.824C96.3386 24.336 95.6986 24.72 94.9466 24.976C94.2106 25.232 93.3866 25.36 92.4746 25.36C91.7866 25.36 91.1466 25.256 90.5546 25.048V29.032C90.3946 29.08 90.1386 29.128 89.7866 29.176C89.4346 29.24 89.0746 29.272 88.7066 29.272C88.3546 29.272 88.0346 29.248 87.7466 29.2C87.4746 29.152 87.2426 29.056 87.0506 28.912C86.8586 28.768 86.7146 28.568 86.6186 28.312C86.5226 28.072 86.4746 27.752 86.4746 27.352V15.832C86.4746 15.4 86.5626 15.048 86.7386 14.776C86.9306 14.504 87.1866 14.256 87.5066 14.032C88.0026 13.712 88.6186 13.456 89.3546 13.264C90.0906 13.072 90.9146 12.976 91.8266 12.976ZM91.8746 22.144C93.5226 22.144 94.3466 21.16 94.3466 19.192C94.3466 18.168 94.1386 17.408 93.7226 16.912C93.3226 16.416 92.7386 16.168 91.9706 16.168C91.6666 16.168 91.3946 16.208 91.1546 16.288C90.9146 16.352 90.7066 16.432 90.5306 16.528V21.808C90.7226 21.904 90.9306 21.984 91.1546 22.048C91.3786 22.112 91.6186 22.144 91.8746 22.144ZM100.514 13.504C100.674 13.456 100.922 13.408 101.258 13.36C101.61 13.312 101.97 13.288 102.338 13.288C102.69 13.288 103.002 13.312 103.274 13.36C103.562 13.408 103.802 13.504 103.994 13.648C104.186 13.792 104.33 13.992 104.426 14.248C104.538 14.488 104.594 14.808 104.594 15.208V20.368C104.594 21.024 104.754 21.496 105.074 21.784C105.394 22.056 105.858 22.192 106.466 22.192C106.834 22.192 107.13 22.16 107.354 22.096C107.594 22.032 107.778 21.968 107.906 21.904V13.504C108.066 13.456 108.314 13.408 108.65 13.36C109.002 13.312 109.362 13.288 109.73 13.288C110.082 13.288 110.394 13.312 110.666 13.36C110.954 13.408 111.194 13.504 111.386 13.648C111.578 13.792 111.722 13.992 111.818 14.248C111.93 14.488 111.986 14.808 111.986 15.208V22.504C111.986 23.304 111.65 23.904 110.978 24.304C110.418 24.656 109.746 24.92 108.962 25.096C108.194 25.288 107.354 25.384 106.442 25.384C105.578 25.384 104.778 25.288 104.042 25.096C103.322 24.904 102.698 24.608 102.17 24.208C101.642 23.808 101.234 23.296 100.946 22.672C100.658 22.032 100.514 21.264 100.514 20.368V13.504ZM104.282 28.384C104.282 27.824 104.482 27.336 104.882 26.92C105.282 26.52 105.794 26.32 106.418 26.32C107.042 26.32 107.554 26.52 107.954 26.92C108.354 27.336 108.554 27.824 108.554 28.384C108.554 28.944 108.354 29.424 107.954 29.824C107.554 30.24 107.042 30.448 106.418 30.448C105.794 30.448 105.282 30.24 104.882 29.824C104.482 29.424 104.282 28.944 104.282 28.384ZM118.562 20.992C118.562 21.408 118.69 21.704 118.946 21.88C119.218 22.056 119.594 22.144 120.074 22.144C120.314 22.144 120.562 22.128 120.818 22.096C121.074 22.048 121.298 21.992 121.49 21.928C121.634 22.104 121.754 22.304 121.85 22.528C121.962 22.736 122.018 22.992 122.018 23.296C122.018 23.904 121.786 24.4 121.322 24.784C120.874 25.168 120.074 25.36 118.922 25.36C117.514 25.36 116.426 25.04 115.658 24.4C114.906 23.76 114.53 22.72 114.53 21.28V11.008C114.706 10.96 114.954 10.912 115.274 10.864C115.61 10.8 115.962 10.768 116.33 10.768C117.034 10.768 117.578 10.896 117.962 11.152C118.362 11.392 118.562 11.912 118.562 12.712V14.248H121.706C121.802 14.424 121.89 14.648 121.97 14.92C122.066 15.176 122.114 15.464 122.114 15.784C122.114 16.344 121.986 16.752 121.73 17.008C121.49 17.248 121.162 17.368 120.746 17.368H118.562V20.992ZM129.084 22.408C129.356 22.408 129.652 22.384 129.972 22.336C130.308 22.272 130.556 22.192 130.716 22.096V20.176L128.988 20.32C128.54 20.352 128.172 20.448 127.884 20.608C127.596 20.768 127.452 21.008 127.452 21.328C127.452 21.648 127.572 21.912 127.812 22.12C128.068 22.312 128.492 22.408 129.084 22.408ZM128.892 12.976C129.756 12.976 130.54 13.064 131.244 13.24C131.964 13.416 132.572 13.688 133.068 14.056C133.58 14.408 133.972 14.864 134.244 15.424C134.516 15.968 134.652 16.616 134.652 17.368V22.744C134.652 23.16 134.532 23.504 134.292 23.776C134.068 24.032 133.796 24.256 133.476 24.448C132.436 25.072 130.972 25.384 129.084 25.384C128.236 25.384 127.468 25.304 126.78 25.144C126.108 24.984 125.524 24.744 125.028 24.424C124.548 24.104 124.172 23.696 123.9 23.2C123.644 22.704 123.516 22.128 123.516 21.472C123.516 20.368 123.844 19.52 124.5 18.928C125.156 18.336 126.172 17.968 127.548 17.824L130.692 17.488V17.32C130.692 16.856 130.484 16.528 130.068 16.336C129.668 16.128 129.084 16.024 128.316 16.024C127.708 16.024 127.116 16.088 126.54 16.216C125.964 16.344 125.444 16.504 124.98 16.696C124.772 16.552 124.596 16.336 124.452 16.048C124.308 15.744 124.236 15.432 124.236 15.112C124.236 14.696 124.332 14.368 124.524 14.128C124.732 13.872 125.044 13.656 125.46 13.48C125.924 13.304 126.468 13.176 127.092 13.096C127.732 13.016 128.332 12.976 128.892 12.976Z" fill="#232735"/>
</svg>
